<?xml version="1.0" standalone="no"?>
<!DOCTYPE svg PUBLIC "-//W3C//DTD SVG 20010904//EN"
 "http://www.w3.org/TR/2001/REC-SVG-20010904/DTD/svg10.dtd">
<svg version="1.0" xmlns="http://www.w3.org/2000/svg"
 width="612.000000pt" height="306.000000pt" viewBox="0 0 612.000000 306.000000"
 preserveAspectRatio="xMidYMid meet">

<g transform="translate(0.000000,306.000000) scale(0.100000,-0.100000)"
fill="#000000" stroke="none">
<path d="M396 3028 c4 -35 3 -38 -19 -38 -14 0 -68 -9 -120 -20 -183 -37 -178
-38 -217 14 -18 25 -36 44 -38 41 -3 -3 9 -23 27 -46 18 -22 31 -42 30 -43 -2
-2 -17 -8 -34 -14 -28 -10 -28 -11 11 -6 38 6 41 4 67 -35 15 -23 30 -41 32
-41 3 0 -7 18 -21 40 -15 22 -25 42 -23 44 6 4 282 56 300 56 15 0 26 -30 107
-297 8 -29 13 -56 9 -59 -6 -7 -80 35 -85 48 -2 4 -8 8 -14 8 -6 0 -58 29
-117 64 -118 70 -151 89 -151 83 0 -3 86 -55 190 -117 133 -79 189 -117 186
-127 -3 -8 -2 -11 4 -8 5 3 14 -12 21 -34 9 -32 9 -44 0 -55 -7 -9 -10 -24 -6
-36 5 -16 -7 -39 -56 -98 -35 -42 -64 -79 -66 -81 -2 -3 -13 5 -25 16 l-21 21
25 44 c67 116 89 158 84 158 -2 0 -28 -40 -56 -89 -52 -89 -77 -120 -102 -125
-7 -2 -33 -11 -58 -22 -25 -10 -48 -18 -52 -16 -5 1 -8 -3 -8 -9 0 -6 3 -9 8
-7 4 2 40 16 81 32 l73 28 20 -20 21 -20 -20 -26 c-11 -14 -24 -22 -28 -18 -3
4 -5 2 -3 -3 2 -6 -30 -52 -71 -103 -57 -70 -79 -91 -95 -88 -12 2 -15 1 -9
-1 18 -6 16 -17 -6 -44 l-19 -24 -11 28 c-14 36 -14 44 2 50 7 3 5 6 -5 6 -10
1 -19 6 -19 11 -2 13 -4 21 -12 40 -17 45 -28 91 -22 100 3 5 2 10 -4 10 -6 0
-18 26 -27 58 -27 97 -53 168 -53 151 -1 -9 6 -35 14 -58 8 -23 14 -45 14 -49
1 -4 8 -31 18 -61 14 -46 14 -54 2 -61 -8 -5 -23 -16 -34 -25 -12 -10 -5 -8
16 4 l36 21 33 -108 c18 -59 35 -112 37 -118 4 -10 -9 -29 -57 -83 -39 -45
-82 -103 -78 -107 4 -3 85 91 122 141 8 11 17 18 19 15 3 -3 37 -108 76 -233
68 -217 82 -294 62 -325 -7 -11 -114 -24 -273 -32 -13 0 -9 -37 13 -113 46
-161 46 -160 31 -189 -7 -16 -23 -33 -34 -39 -11 -6 -17 -13 -15 -16 3 -2 14
0 25 6 40 21 67 -1 85 -71 9 -34 30 -108 47 -163 17 -55 33 -109 34 -120 2
-11 8 -30 14 -42 15 -27 16 -56 2 -48 -5 3 -10 1 -10 -4 0 -6 7 -11 15 -11 13
0 45 -82 45 -116 0 -7 -44 -38 -98 -70 -148 -86 -163 -96 -159 -100 2 -2 62
29 133 71 70 41 131 71 134 67 4 -4 30 -88 60 -187 51 -174 71 -228 56 -155
-9 42 -11 51 -19 70 -8 21 -75 251 -79 272 -2 12 15 28 55 52 51 31 87 38 87
17 0 -4 27 -48 59 -98 33 -50 57 -94 55 -96 -3 -3 15 -12 40 -20 26 -9 46 -12
46 -8 0 5 -15 12 -32 15 -29 5 -42 20 -105 121 l-72 114 92 54 c390 229 383
226 426 217 20 -4 79 -15 132 -25 94 -16 97 -17 117 -53 12 -20 31 -51 42 -69
l21 -32 -38 -20 c-21 -11 -34 -20 -30 -21 4 0 21 7 38 15 29 16 49 13 49 -6 0
-6 11 -25 25 -43 14 -18 25 -38 25 -44 0 -6 4 -12 8 -14 5 -1 41 -56 80 -120
l72 -117 -47 -21 c-25 -11 -47 -20 -49 -20 -4 0 -100 -43 -209 -94 -38 -18
-81 -38 -95 -44 -14 -6 -19 -11 -12 -11 11 -1 146 55 195 80 9 5 63 29 118 54
96 42 119 47 119 24 0 -6 11 -25 25 -43 31 -41 31 -47 0 -76 -14 -13 -25 -27
-25 -32 0 -5 14 6 31 24 20 22 32 29 36 21 2 -7 14 -23 25 -35 18 -21 17 -19
-3 17 -12 22 -38 64 -57 93 -19 30 -30 57 -26 61 15 12 454 204 457 200 2 -2
21 -35 42 -74 35 -64 92 -153 106 -165 3 -3 25 -32 50 -65 50 -69 69 -90 69
-78 -1 4 -42 63 -93 130 -51 67 -107 152 -126 189 -33 64 -34 67 -16 80 10 8
22 14 26 14 5 0 25 -32 45 -70 20 -39 38 -69 40 -67 2 2 -12 32 -31 68 -19 35
-35 67 -35 71 0 10 103 54 115 49 6 -3 26 -5 44 -7 19 -1 40 -8 45 -16 6 -7
38 -36 71 -63 32 -28 109 -94 170 -149 60 -54 120 -102 133 -107 13 -5 45 -9
72 -9 54 0 66 -10 50 -40 -9 -18 -21 -20 -93 -20 -60 0 -89 -4 -103 -16 -18
-15 -18 -15 3 -5 30 15 30 15 47 -16 8 -16 15 -24 15 -18 1 6 -4 17 -9 25 -8
13 2 16 67 20 76 5 77 5 86 36 9 30 11 31 69 33 86 2 120 -12 164 -70 40 -51
70 -70 35 -21 -29 41 -83 92 -97 92 -30 0 -19 18 24 40 26 14 65 37 88 52 22
15 52 32 65 38 13 6 44 23 69 38 25 16 71 43 102 60 l57 33 31 -103 c55 -179
90 -284 84 -250 -3 17 -28 105 -55 195 l-48 162 22 17 c12 10 26 18 30 18 5 0
22 9 38 21 23 16 33 18 44 9 17 -14 125 -186 125 -199 0 -12 39 -25 47 -17 4
3 0 6 -8 6 -8 0 -47 51 -86 113 -65 102 -70 113 -55 125 47 36 450 264 467
264 22 0 256 -40 260 -44 1 -2 21 -33 43 -71 l41 -67 -27 -16 c-25 -14 -18
-14 19 1 15 6 44 -32 82 -105 4 -8 41 -67 82 -130 l74 -115 -63 -30 c-34 -16
-78 -36 -97 -44 -19 -8 -61 -26 -94 -41 -33 -15 -84 -37 -113 -51 -30 -13 -50
-25 -44 -27 8 -2 152 55 195 79 9 5 63 30 119 55 115 50 107 52 149 -28 l19
-37 -25 -29 c-14 -17 -25 -33 -25 -37 0 -3 12 8 27 25 l27 32 28 -33 c16 -19
27 -27 26 -19 -2 8 -6 18 -11 21 -18 13 -97 153 -90 159 4 4 26 14 48 23 22 8
74 31 115 50 128 59 292 129 294 125 1 -1 20 -34 41 -73 35 -65 92 -153 106
-165 3 -3 29 -38 59 -78 29 -40 55 -71 57 -68 3 3 -36 60 -86 128 -51 68 -110
156 -131 196 l-40 73 26 9 c14 6 27 10 29 10 2 0 21 -32 41 -70 20 -39 38 -69
40 -67 2 2 -12 33 -32 70 -33 62 -37 87 -13 87 6 0 27 8 48 19 27 13 44 15 56
9 9 -6 25 -8 35 -5 14 4 70 -40 202 -155 100 -88 192 -167 204 -174 12 -8 48
-15 83 -15 59 -1 62 -2 57 -23 -3 -11 -6 -24 -6 -28 0 -5 -38 -8 -84 -8 -73 0
-91 -4 -142 -30 -32 -16 -53 -30 -46 -30 7 0 33 11 58 25 25 14 47 25 49 25 2
0 11 -12 19 -27 8 -16 15 -24 15 -18 1 6 -4 17 -9 25 -8 13 2 16 67 20 75 5
77 6 87 36 11 29 14 31 73 33 78 3 119 -16 163 -74 35 -46 40 -51 40 -37 0 23
-89 112 -112 112 -34 0 -18 15 62 60 44 25 80 48 80 53 0 4 -11 0 -25 -9 -14
-9 -25 -12 -25 -8 0 5 -4 4 -8 -2 -4 -7 -35 -28 -69 -48 -49 -29 -72 -36 -113
-36 l-52 0 6 32 5 33 -11 -32 c-11 -32 -12 -33 -70 -33 -54 0 -84 9 -114 35
-208 177 -354 313 -354 330 0 16 14 26 63 45 72 28 164 77 174 93 4 6 9 26 12
45 l6 34 43 -32 c103 -75 142 -76 193 -5 18 25 40 45 48 46 10 0 12 2 4 6 -14
5 15 50 71 111 35 39 161 106 178 96 6 -4 8 -3 4 4 -3 6 3 13 14 17 11 3 20
11 20 17 0 5 -3 8 -7 6 -5 -2 -21 -10 -38 -18 -16 -8 -32 -17 -35 -20 -3 -3
-30 -17 -61 -30 -58 -26 -67 -34 -181 -190 -39 -53 -71 -86 -84 -88 -12 -2
-48 13 -80 32 -104 63 -96 43 -92 224 l3 159 57 75 c32 41 69 87 83 102 14 15
33 38 41 51 12 19 26 24 70 27 l54 3 2 -45 1 -45 6 45 6 45 73 3 c39 2 72 7
72 12 0 5 -10 7 -22 5 -12 -3 -31 3 -42 13 -20 16 -20 16 -7 0 12 -17 9 -18
-40 -19 -30 0 -74 -3 -99 -6 -42 -5 -44 -4 -30 13 15 20 91 112 124 151 11 13
29 23 42 23 29 0 48 24 40 53 -4 17 1 30 18 46 l24 22 22 -73 c13 -40 24 -80
25 -88 0 -8 6 -24 12 -35 6 -11 14 -37 18 -58 l7 -37 -43 0 c-52 0 -47 -10 7
-12 21 -1 42 -6 46 -12 15 -22 8 24 -16 101 -13 43 -34 113 -46 155 l-23 78
39 47 c21 27 43 51 48 55 6 4 7 10 3 14 -4 4 -8 5 -10 3 -6 -8 -103 -125 -119
-143 -10 -11 -18 -23 -18 -28 0 -4 -13 -8 -29 -8 -26 0 -44 17 -134 123 -57
67 -107 127 -110 134 -7 11 71 74 90 73 4 -1 44 -53 88 -117 78 -112 124 -174
109 -143 -4 8 -45 68 -91 134 -47 65 -86 123 -89 130 -2 6 16 24 41 39 25 16
48 33 51 39 4 6 -41 -22 -99 -61 -59 -39 -110 -71 -115 -71 -8 0 -115 123
-195 223 -21 27 -41 46 -44 43 -3 -3 15 -29 40 -58 26 -29 78 -91 116 -137
l70 -84 -42 -33 c-23 -18 -127 -97 -231 -175 l-189 -142 -44 22 c-39 19 -43
23 -33 42 7 11 9 23 6 27 -3 3 -6 1 -6 -4 0 -5 -4 -15 -9 -23 -7 -11 -30 -3
-115 42 -222 118 -346 189 -346 198 0 6 -4 7 -10 4 -15 -9 -50 13 -50 32 0 9
-7 24 -15 33 -14 15 -13 38 2 218 14 168 20 202 32 202 13 0 14 2 2 9 -11 7
-12 27 -7 92 13 169 19 219 25 219 3 0 110 -30 237 -66 190 -55 232 -70 240
-88 5 -11 20 -23 34 -24 26 -4 50 -19 50 -32 0 -4 -37 -35 -82 -69 -62 -46
-90 -61 -117 -62 -31 -1 -32 -2 -12 -8 23 -6 19 -11 -50 -62 -41 -31 -87 -64
-102 -74 -26 -17 -102 -146 -77 -130 5 3 17 23 26 43 8 20 22 44 30 53 15 17
18 16 57 -5 122 -67 197 -106 207 -106 6 0 41 21 77 47 54 38 68 44 82 35 52
-38 58 -37 111 7 27 23 50 38 50 34 0 -5 -45 -85 -100 -178 -55 -93 -100 -174
-100 -179 0 -6 19 23 43 64 120 210 191 322 220 349 82 75 143 121 155 116 7
-2 10 -1 7 5 -6 9 63 79 79 80 8 0 107 -85 210 -183 49 -45 90 -67 103 -53 4
3 -2 6 -13 6 -11 0 -30 10 -44 23 -14 12 -76 67 -138 121 l-112 98 42 51 c24
29 45 54 48 57 4 3 13 14 21 26 8 11 30 39 49 61 l35 41 79 -18 c43 -11 81
-21 83 -24 3 -3 6 -16 7 -30 0 -14 4 -26 7 -26 3 0 11 -24 19 -52 7 -29 15
-48 17 -41 2 6 -4 41 -15 77 l-20 65 22 3 c11 2 -24 14 -79 27 -55 13 -104 27
-108 32 -10 7 15 166 32 212 12 31 53 52 120 63 23 4 44 11 47 16 4 6 -1 8
-12 5 -11 -3 -42 -10 -70 -17 -77 -17 -94 -41 -119 -168 -13 -61 -26 -106 -32
-105 -6 1 -24 5 -40 8 -15 3 -83 18 -150 33 -115 26 -124 29 -147 62 -14 19
-29 40 -33 45 -20 23 -130 171 -136 182 -5 7 8 20 33 34 22 12 38 24 36 26 -2
2 -19 -5 -37 -16 -19 -12 -38 -21 -44 -21 -5 0 -23 19 -39 41 -15 22 -30 38
-33 35 -5 -4 37 -65 65 -95 7 -7 31 -39 52 -70 22 -31 63 -85 90 -121 27 -36
49 -68 50 -72 0 -3 -15 -9 -32 -13 -31 -6 -50 -11 -179 -49 -43 -13 -68 -29
-109 -71 -31 -32 -63 -55 -75 -55 -12 0 -26 -5 -32 -11 -7 -7 -64 5 -194 41
-101 29 -188 55 -194 58 -5 3 -18 7 -30 8 -11 1 -32 7 -46 12 l-25 10 12 139
c25 278 26 298 20 292 -8 -7 -8 -15 -26 -239 -14 -184 -16 -194 -38 -185 -9 4
-35 11 -56 17 -22 5 -44 12 -50 16 -6 3 -18 8 -27 9 -45 7 -164 51 -162 60 1
6 -6 9 -15 6 -10 -2 -31 3 -47 11 -51 27 -225 151 -225 161 0 28 58 116 85
130 56 27 5 15 -61 -15 -37 -16 -70 -27 -75 -24 -5 3 -9 1 -9 -5 0 -25 -40
-20 -91 11 -46 29 -60 33 -118 32 -36 0 -113 -11 -169 -23 -57 -12 -105 -21
-107 -19 -1 2 -7 17 -13 33 l-11 30 5 -36 c4 -26 2 -36 -8 -36 -7 0 -62 -10
-123 -21 -60 -12 -122 -23 -137 -26 -15 -2 -32 -7 -36 -10 -5 -3 -33 24 -62
60 -29 35 -55 63 -57 60 -3 -3 16 -30 42 -61 26 -30 46 -58 43 -60 -2 -3 -40
-12 -84 -21 -141 -29 -155 -44 -179 -179 -9 -55 -20 -103 -24 -107 -3 -3 -77
11 -163 32 -126 30 -162 42 -178 61 -10 13 -19 27 -20 31 0 4 -6 13 -13 20
-13 13 -127 163 -140 185 -5 7 11 21 43 39 28 15 48 29 46 31 -2 2 -23 -8 -47
-22 -24 -13 -48 -25 -54 -25 -5 0 -23 19 -39 41 -15 22 -31 38 -34 35 -3 -4 4
-16 14 -29 29 -32 59 -81 56 -90 -1 -5 2 -6 7 -3 5 4 19 -10 31 -29 12 -20 27
-41 34 -48 19 -21 116 -154 116 -161 0 -3 -5 -6 -11 -6 -7 0 -64 -14 -128 -32
-112 -30 -118 -34 -177 -90 -33 -32 -70 -58 -80 -58 -11 0 -25 -5 -31 -11 -8
-8 -22 -7 -49 1 -22 6 -64 18 -94 26 -30 8 -62 17 -70 21 -8 3 -21 7 -28 9
-22 4 -237 66 -243 69 -4 3 4 111 25 323 3 28 2 52 -3 52 -5 0 -14 -79 -21
-174 -7 -96 -16 -179 -19 -185 -6 -9 -53 2 -121 26 -8 3 -22 7 -30 8 -23 2
-154 47 -162 54 -5 4 48 76 117 160 69 84 128 158 131 164 15 27 -31 -26 -141
-163 -65 -80 -121 -146 -125 -148 -17 -6 -141 70 -269 165 -3 2 9 31 24 64 21
44 38 65 60 74 16 7 24 14 17 14 -7 1 -42 -12 -78 -29 -37 -16 -70 -27 -75
-24 -5 3 -9 1 -9 -5 0 -24 -40 -20 -86 9 -26 16 -63 33 -81 36 -27 5 -209 -20
-299 -42 -16 -4 -23 1 -32 28 l-12 33 6 -37z m348 0 c22 -6 42 -13 44 -14 2
-1 -4 -17 -13 -36 -14 -28 -14 -30 0 -14 8 11 15 23 15 28 0 17 25 6 87 -38
l64 -45 -42 -77 c-23 -42 -44 -79 -45 -81 -2 -2 -15 7 -28 20 -13 14 -45 35
-70 48 l-47 23 22 34 c12 19 19 37 17 40 -3 2 -36 -55 -75 -128 -51 -97 -79
-139 -104 -156 l-34 -23 -12 29 c-7 17 -14 41 -17 54 -3 12 -23 83 -46 157
-23 73 -39 135 -37 137 3 4 69 17 144 29 15 3 46 9 68 14 57 12 63 12 109 -1z
m3079 -7 c27 -11 27 -11 12 -43 -14 -29 -14 -31 0 -14 8 11 15 23 15 28 0 17
24 6 86 -38 l64 -46 -41 -76 c-51 -95 -48 -91 -65 -68 -8 11 -14 15 -14 9 0
-5 36 -43 81 -84 69 -63 79 -76 75 -98 -3 -15 21 27 55 92 l60 119 34 -26 c18
-14 36 -26 39 -26 3 0 29 -11 58 -23 56 -25 112 -46 139 -52 10 -2 58 -16 109
-31 l92 -28 -5 -56 c-4 -32 -9 -101 -13 -154 -4 -53 -9 -96 -11 -96 -3 0 -41
9 -85 21 -44 11 -82 18 -85 16 -2 -3 18 -10 44 -16 26 -7 65 -17 87 -22 l38
-10 -7 -92 c-3 -51 -10 -135 -15 -187 -5 -52 -10 -105 -10 -117 0 -32 -42 -41
-78 -17 -15 10 -78 44 -140 76 -97 50 -121 58 -168 58 l-55 0 2 63 c1 35 0 68
-3 73 -3 5 -12 35 -19 67 -11 50 -10 60 2 68 12 7 11 9 -2 9 -20 0 -33 68 -24
120 9 50 29 82 120 190 47 55 85 103 85 107 0 9 -29 -23 -121 -134 -52 -61
-82 -108 -90 -136 -13 -48 -7 -125 16 -212 9 -33 19 -95 22 -137 l6 -78 -118
0 c-127 0 -162 10 -211 58 -14 15 -34 42 -44 62 l-18 35 31 39 c17 21 43 57
58 79 17 26 49 53 86 73 52 29 62 39 95 106 50 99 47 112 -3 16 -36 -67 -49
-83 -98 -112 -40 -25 -72 -56 -111 -110 -30 -41 -58 -72 -61 -68 -3 4 -18 48
-33 97 -15 50 -29 96 -32 103 -2 7 2 23 10 35 17 27 5 67 -21 67 -13 0 -23 13
-32 47 -14 44 -13 47 9 65 13 10 29 22 35 26 13 7 59 92 50 92 -2 0 -14 -18
-25 -40 -12 -23 -35 -49 -53 -60 -36 -22 -40 -19 -56 46 -5 21 -28 99 -50 173
-22 74 -39 136 -38 138 4 3 96 22 142 29 17 2 48 8 70 13 45 11 87 8 128 -8z
m-2849 -51 c-28 -52 -31 -52 -79 -17 -19 15 -19 16 10 27 17 7 41 18 55 26 41
22 43 17 14 -36z m3067 13 c-35 -66 -34 -65 -70 -38 l-34 24 29 12 c16 6 40
17 54 25 39 21 42 17 21 -23z m-564 -35 c28 -80 94 -320 90 -324 -3 -3 -22 5
-44 18 -72 45 -133 79 -133 74 0 -2 42 -30 94 -61 90 -53 96 -59 111 -105 9
-27 13 -55 9 -62 -5 -7 -8 -25 -9 -39 0 -17 -22 -53 -64 -104 -63 -77 -63 -77
-83 -57 -19 19 -19 21 -3 53 10 19 21 36 24 39 3 3 15 23 27 45 11 22 36 67
54 100 18 33 28 56 22 50 -10 -9 -50 -79 -121 -207 -14 -26 -29 -47 -32 -45
-4 1 -59 52 -123 113 -98 94 -122 113 -153 116 -59 7 -277 59 -287 68 -8 8 17
171 35 217 11 30 50 47 158 68 l83 17 24 -28 c13 -16 23 -33 24 -37 0 -5 8
-16 17 -25 21 -21 175 -113 180 -108 2 2 -34 26 -80 52 -61 36 -92 61 -115 95
-18 25 -32 48 -32 51 0 3 24 9 53 13 28 4 59 9 67 11 50 13 149 32 170 33 21
1 28 -6 37 -31z m-2473 -85 c83 -61 81 -54 41 -132 -19 -39 -35 -74 -35 -78 1
-5 19 27 41 70 l40 79 32 -24 c18 -13 44 -29 60 -36 15 -6 27 -16 27 -21 0 -5
-19 -31 -43 -57 -80 -92 -134 -159 -147 -183 -7 -14 -14 -53 -16 -88 -1 -34
-6 -68 -10 -74 -4 -7 -3 -9 3 -6 12 8 44 -132 51 -225 l5 -68 -109 0 c-60 0
-125 5 -144 10 -38 10 -98 67 -123 114 -14 29 -14 31 47 112 35 48 75 90 93
99 18 8 35 21 39 27 4 6 -12 0 -34 -12 -26 -15 -64 -53 -99 -101 -32 -43 -61
-74 -64 -71 -4 4 -21 53 -38 109 -28 92 -30 105 -17 125 17 28 5 68 -21 68
-13 0 -23 13 -32 47 -15 50 -18 44 40 86 9 7 38 53 64 102 27 50 49 91 51 93
1 2 21 -7 45 -19 45 -23 229 -187 229 -204 0 -15 -69 -155 -93 -189 -13 -18
-15 -27 -7 -24 16 5 18 9 67 113 63 132 66 140 51 127 -10 -8 -28 3 -76 50
l-62 60 43 79 c23 43 44 79 46 79 2 0 26 -17 55 -37z m3056 2 c25 -19 53 -41
63 -49 17 -13 16 -19 -28 -106 l-46 -91 -64 62 -64 62 42 79 c23 43 44 78 47
78 3 0 25 -16 50 -35z m-2806 -152 c4 -5 11 -8 14 -8 4 -1 52 -15 107 -32 55
-17 120 -37 144 -43 l44 -11 -6 -62 c-4 -34 -9 -104 -13 -154 -6 -76 -10 -93
-23 -93 -13 0 -14 -2 -2 -9 12 -8 12 -38 -3 -213 -11 -125 -22 -206 -29 -210
-19 -12 -37 -9 -65 10 -15 10 -78 44 -140 75 -96 49 -121 57 -167 57 l-55 0 0
55 c0 30 -8 89 -17 131 -14 65 -14 77 -2 85 12 7 11 9 -2 9 -34 0 -33 129 0
186 29 49 184 233 197 234 6 0 14 -3 18 -7z m1331 -46 c11 -3 54 -13 95 -22
41 -8 92 -20 113 -26 l38 -10 -31 -40 c-18 -21 -27 -39 -21 -39 6 0 11 3 11 8
0 4 12 21 28 38 l27 32 81 -20 81 -19 18 -62 c10 -34 27 -89 38 -122 10 -33
20 -64 21 -70 1 -5 11 -37 21 -69 13 -42 15 -61 8 -63 -7 -3 -30 -17 -52 -34
-23 -16 -53 -29 -68 -30 -16 0 -22 -3 -15 -6 10 -4 10 -8 0 -21 -14 -18 1 -9
97 55 l50 33 37 -112 c20 -62 37 -116 37 -120 1 -5 -34 -50 -76 -101 -43 -50
-100 -120 -128 -154 -27 -34 -52 -60 -55 -58 -4 2 -46 60 -93 129 -48 69 -92
128 -98 132 -6 3 5 -17 25 -45 20 -28 52 -75 72 -103 21 -29 49 -69 64 -88 27
-34 28 -36 10 -58 -40 -49 -69 -29 -225 161 -73 89 -72 81 -20 116 25 17 48
31 51 31 3 0 15 10 27 21 26 26 11 18 -64 -33 -31 -21 -60 -38 -65 -38 -5 0
-58 59 -119 132 -60 72 -129 153 -152 178 -24 26 -43 52 -43 59 0 6 -4 11 -8
11 -4 0 -45 45 -90 99 -104 126 -106 143 -29 222 46 48 60 56 121 70 l68 16
134 -136 133 -136 -27 -25 c-54 -49 -151 -130 -155 -130 -7 0 -67 -60 -67 -66
0 -3 56 42 125 100 68 59 127 106 131 106 8 0 57 -43 151 -130 87 -82 125
-110 149 -110 11 0 5 7 -17 18 -19 10 -89 67 -156 127 l-122 109 26 30 c14 17
41 48 60 69 19 21 33 41 30 43 -3 3 -31 -27 -63 -67 l-58 -72 -128 134 c-70
74 -127 137 -128 140 -1 21 133 32 195 16z m3092 -8 c48 -12 99 -23 113 -26
14 -2 42 -8 63 -14 l38 -10 -48 -61 c-26 -33 -54 -63 -60 -65 -7 -3 -11 -8 -8
-12 7 -12 -123 -142 -234 -235 -58 -47 -107 -86 -110 -85 -3 0 -44 48 -91 106
-47 57 -100 121 -117 141 -50 56 -46 97 15 160 33 36 60 53 92 62 25 7 58 17
74 23 26 10 31 7 68 -34 55 -62 195 -204 215 -220 23 -17 22 -16 -115 129 -65
68 -118 127 -120 131 -3 9 63 28 105 30 17 0 71 -8 120 -20z m-3846 -119 c177
-51 217 -66 225 -84 5 -11 20 -23 34 -24 26 -4 50 -19 50 -32 0 -5 -34 -34
-75 -65 -41 -31 -75 -59 -75 -62 0 -6 47 28 119 85 l43 35 23 -29 c12 -16 59
-72 104 -124 44 -52 81 -97 81 -100 0 -8 -117 -100 -126 -100 -5 1 -22 11 -38
24 l-29 24 -67 -49 c-37 -27 -74 -49 -81 -48 -8 0 -27 9 -44 20 -16 10 -41 24
-55 30 -14 6 -49 24 -78 41 -52 30 -53 31 -35 50 l18 20 -33 -20 c-41 -24 -43
-27 -127 -187 -37 -71 -71 -134 -75 -138 -10 -12 -50 14 -50 32 0 8 -7 22 -15
31 -13 14 -13 40 2 218 14 169 19 202 32 202 13 0 13 2 2 9 -10 6 -12 25 -8
77 4 38 9 107 13 152 6 79 8 84 28 79 11 -2 118 -32 237 -67z m1281 4 c70 -16
75 -19 165 -107 51 -50 100 -95 108 -100 33 -18 10 -36 -116 -86 -73 -28 -133
-50 -134 -49 -3 3 -89 274 -106 331 -9 32 -10 32 83 11z m-994 -72 c4 -28 -24
-41 -44 -20 -20 20 -7 50 20 46 13 -2 22 -12 24 -26z m3060 0 c4 -28 -24 -40
-45 -19 -21 21 -9 49 19 45 15 -2 24 -11 26 -26z m-4580 -10 c4 -28 -24 -40
-45 -19 -14 13 -14 19 -3 32 18 22 44 15 48 -13z m3057 -2 c0 -18 -6 -26 -21
-28 -26 -4 -40 24 -23 45 18 21 44 11 44 -17z m-3069 -77 c8 -21 17 -47 18
-58 1 -12 5 -25 8 -30 3 -6 13 -37 22 -69 l15 -60 -35 -55 c-19 -31 -41 -65
-47 -76 -7 -10 -29 -47 -50 -81 l-38 -63 -76 49 c-42 27 -98 54 -125 60 -26 7
-48 17 -48 22 0 9 59 85 95 124 5 6 24 28 40 49 17 21 35 43 40 49 6 6 28 34
50 61 22 28 50 61 62 75 13 14 23 28 23 32 0 5 7 8 15 8 8 0 22 -17 31 -37z
m3064 -15 c8 -29 15 -55 15 -58 1 -3 6 -16 12 -30 9 -21 25 -81 27 -100 2 -16
59 -99 83 -121 42 -39 84 -49 207 -49 l110 0 -66 -65 c-37 -36 -72 -65 -79
-65 -7 0 -9 -3 -6 -6 3 -4 0 -16 -8 -28 -8 -11 -15 -27 -15 -36 1 -8 7 -1 14
15 16 35 156 176 156 157 0 -27 -44 -142 -97 -257 -31 -66 -57 -121 -58 -123
-2 -2 -15 4 -30 14 -23 15 -26 22 -21 53 l6 36 -14 -35 c-7 -20 -16 -51 -20
-70 -5 -31 -5 -32 4 -10 6 13 13 26 15 28 8 8 45 -20 45 -34 0 -18 -59 -137
-73 -146 -6 -3 -11 -14 -12 -25 -2 -22 -26 -76 -38 -84 -5 -3 -8 -10 -7 -15 2
-13 -42 -104 -51 -104 -4 0 -32 24 -63 53 -31 29 -56 52 -56 50 0 -1 -17 9
-37 23 -29 19 -48 24 -86 23 -33 -2 -51 2 -58 12 -7 11 -9 11 -9 -3 0 -14 -9
-18 -40 -18 l-40 0 0 59 c0 44 -17 112 -70 282 -38 123 -70 231 -70 239 0 9
12 30 28 48 25 31 29 32 60 21 18 -6 36 -9 39 -5 4 3 1 6 -5 6 -6 0 -23 5 -37
10 l-26 10 48 58 c26 31 50 59 53 62 3 3 20 24 39 48 18 23 38 39 43 36 6 -4
9 -3 5 2 -9 16 131 193 154 194 10 0 20 -17 29 -52z m1689 -128 c45 -52 80
-98 79 -101 -4 -10 -116 -99 -124 -99 -4 0 -21 11 -38 24 l-32 24 -67 -49
c-36 -27 -71 -49 -77 -49 -6 0 -62 28 -126 63 -111 60 -114 62 -92 77 12 8 96
70 187 138 l165 123 22 -28 c12 -15 58 -71 103 -123z m-1894 40 c19 -21 19
-21 -32 -77 -6 -7 -42 -51 -79 -98 -45 -58 -73 -84 -83 -81 -9 3 -28 8 -43 12
-16 3 -29 10 -29 15 -3 16 -5 23 -23 77 -10 29 -15 56 -11 60 8 8 256 110 271
111 6 1 19 -8 29 -19z m-2728 -211 c42 -47 87 -59 219 -59 l108 0 -66 -65
c-37 -36 -72 -65 -77 -65 -6 0 -10 -3 -9 -7 0 -5 -6 -25 -15 -45 -10 -21 -17
-42 -17 -48 0 -14 3 -14 -128 20 -63 17 -120 29 -126 27 -6 -2 28 -13 74 -25
47 -13 93 -25 103 -27 9 -3 27 -7 39 -10 12 -2 25 -10 30 -17 5 -9 8 -10 8 -1
0 6 5 24 12 40 6 15 12 34 14 42 4 23 149 163 152 148 4 -19 -47 -153 -103
-272 -26 -55 -49 -101 -50 -103 -2 -2 -15 4 -30 14 -23 15 -26 22 -21 53 3 25
-1 17 -15 -23 -11 -33 -18 -65 -16 -70 2 -6 7 4 11 21 7 32 8 32 32 17 13 -9
24 -21 24 -28 0 -18 -64 -155 -73 -156 -5 0 -6 4 -2 9 3 5 1 12 -4 15 -5 3 -7
-7 -6 -22 3 -37 -12 -75 -26 -66 -8 5 -9 3 -4 -6 8 -12 -52 -150 -65 -150 -4
0 -31 23 -61 50 -82 77 -129 101 -184 99 -32 -2 -49 2 -56 12 -7 12 -9 11 -9
-2 0 -13 -10 -17 -40 -17 l-40 -1 0 58 c0 44 -15 108 -61 252 -79 250 -79 251
-79 271 0 10 12 31 27 48 l28 30 55 -16 c56 -17 200 -99 200 -115 0 -5 -9 -23
-20 -41 -11 -18 -20 -42 -19 -53 1 -15 3 -14 9 7 7 25 98 181 179 308 l34 54
16 -24 c9 -14 30 -41 48 -61z m1895 -225 c205 -244 226 -272 226 -305 0 -22
-9 -47 -22 -62 -11 -14 -43 -54 -71 -89 -61 -77 -62 -78 -100 -73 -16 2 -53 6
-82 10 -79 9 -167 41 -308 112 -107 54 -107 55 -41 98 31 21 56 42 56 46 0 5
-27 -12 -61 -38 l-61 -46 -44 21 -43 21 25 57 c14 31 23 58 21 61 -3 2 -14
-21 -27 -52 -12 -30 -26 -55 -30 -55 -4 0 -50 23 -101 51 -250 136 -349 191
-349 195 0 2 23 48 51 101 29 54 61 116 72 138 26 54 47 77 61 66 19 -15 227
-121 238 -121 5 0 39 21 75 47 55 39 68 45 84 35 11 -7 28 -17 38 -24 17 -10
26 -6 64 25 25 20 48 37 51 37 4 0 -1 -15 -9 -32 l-16 -33 20 25 c11 14 23 33
27 43 3 10 11 16 17 14 7 -2 114 -125 239 -273z m637 170 c2 -2 -4 -15 -13
-29 -18 -27 -36 -33 -36 -12 0 6 -3 22 -6 35 -6 21 -4 22 22 16 16 -4 31 -8
33 -10z m-1999 -48 c128 -65 210 -116 210 -131 0 -7 7 -20 15 -29 14 -13 14
-33 0 -187 -8 -95 -15 -179 -15 -186 0 -26 -16 -12 -59 52 -51 74 -77 85 -151
61 -25 -8 -38 -15 -29 -15 9 -1 30 4 48 10 49 17 76 4 120 -59 22 -31 46 -63
52 -70 12 -15 6 -116 -13 -207 -23 -110 -90 -204 -172 -241 -17 -8 -40 -20
-51 -27 -69 -43 -97 -57 -105 -52 -6 4 -10 58 -10 121 0 112 0 114 -22 114
-21 -1 -21 -2 -5 -11 24 -14 26 -203 1 -213 -10 -4 -66 38 -174 132 -87 75
-159 140 -159 144 -1 3 7 9 17 11 10 3 6 5 -10 6 -16 0 -28 5 -28 11 0 10 34
85 125 274 l48 100 26 -33 c26 -32 29 -33 78 -26 33 4 53 3 58 -4 3 -6 11 -11
18 -11 6 0 2 7 -11 15 -16 12 -34 14 -70 9 -48 -6 -49 -5 -71 29 l-22 36 40
80 c56 110 108 238 116 286 4 22 10 43 12 47 2 4 30 6 61 5 42 -2 76 -13 132
-41z m3098 -22 c70 -37 137 -72 149 -78 13 -6 23 -17 23 -25 0 -8 7 -22 15
-31 14 -15 14 -35 0 -186 -8 -93 -15 -177 -15 -188 0 -13 -5 -16 -17 -12 -16
6 -16 6 -3 -9 14 -13 14 -27 4 -108 -25 -199 -67 -276 -184 -341 -115 -65
-146 -81 -155 -81 -6 0 -12 48 -15 115 -4 100 -7 115 -23 116 -12 1 -13 1 -2
-3 23 -7 22 -208 -2 -217 -10 -4 -26 2 -42 17 -33 30 -295 260 -300 264 -16
11 8 81 78 226 82 169 82 169 103 150 l21 -18 -17 26 c-17 26 -16 29 32 125
51 104 94 211 111 280 11 41 11 41 62 43 43 1 67 -8 177 -65z m-1134 -41 c2
-10 19 -65 37 -123 17 -58 32 -109 33 -115 1 -5 15 -48 31 -95 19 -57 29 -107
29 -150 l1 -64 -40 -7 c-22 -4 -87 -8 -145 -10 l-104 -4 -17 60 c-10 33 -29
102 -44 153 l-27 92 75 93 c42 50 93 113 114 139 42 52 49 56 57 31z m-1694
-48 c18 -21 5 -47 -22 -43 -26 3 -37 36 -16 49 18 12 24 11 38 -6z m3060 0
c17 -20 5 -45 -20 -45 -11 0 -23 7 -26 15 -6 15 11 45 26 45 4 0 13 -7 20 -15z
m1217 -160 c112 -134 123 -166 80 -217 -12 -15 -47 -58 -77 -97 l-55 -70 -50
5 c-79 6 -126 15 -190 36 -63 19 -285 128 -285 139 0 3 87 70 193 149 105 80
207 157 226 173 28 24 36 26 46 15 6 -7 57 -67 112 -133z m-4236 105 c18 -10
18 -12 -6 -61 -14 -27 -35 -64 -46 -82 l-21 -32 7 85 c8 97 20 114 66 90z
m3060 0 c18 -10 18 -12 -6 -60 -14 -28 -23 -50 -20 -50 2 0 14 19 26 43 12 23
23 43 24 45 3 3 121 -58 232 -120 58 -32 58 -26 5 -126 -13 -24 -21 -46 -19
-49 3 -2 20 28 38 66 19 39 38 71 43 71 5 0 23 -8 40 -19 17 -10 71 -40 120
-66 l90 -48 -50 -45 -49 -45 47 37 c45 35 47 36 51 14 4 -20 4 -19 6 5 1 33 6
33 51 5 118 -73 275 -132 393 -149 l85 -12 -90 -111 c-49 -61 -94 -121 -99
-134 -5 -13 -9 -89 -9 -168 l0 -145 -22 8 c-25 9 -223 8 -423 -2 l-130 -7 20
24 c35 39 50 64 21 35 l-27 -27 -57 67 c-31 38 -72 84 -91 103 -40 41 -21 16
73 -93 37 -44 65 -84 63 -90 -5 -15 -88 -23 -332 -31 -104 -3 -235 -9 -290
-12 l-100 -6 -33 50 c-22 34 -32 60 -30 82 2 28 11 36 86 77 46 25 103 60 126
77 22 18 79 58 125 90 70 49 86 56 95 45 6 -8 30 -40 54 -72 26 -35 56 -63 79
-72 51 -22 55 -18 6 8 -26 14 -61 48 -92 89 l-51 67 78 52 c42 29 92 63 111
76 19 13 40 23 47 23 7 0 49 -75 94 -167 44 -91 82 -164 84 -162 2 2 -32 76
-75 164 -43 88 -78 163 -79 167 0 3 16 12 35 18 19 6 35 15 35 20 0 5 -12 2
-27 -6 -42 -21 -59 -17 -73 16 -12 29 -5 57 28 114 3 5 1 6 -5 3 -5 -3 -18
-24 -28 -47 -17 -38 -17 -43 -2 -75 9 -19 13 -35 9 -35 -9 0 -142 -88 -282
-186 -119 -84 -118 -83 -98 -53 40 62 66 194 84 424 5 65 13 103 30 138 26 50
25 65 -1 20 -15 -27 -16 -24 -10 57 8 97 20 114 66 90z m-2913 -82 c64 -33
129 -69 144 -80 14 -10 29 -18 31 -18 3 0 61 -30 128 -67 l122 -66 -49 -43
c-45 -39 -76 -53 -223 -100 -8 -2 -12 -7 -9 -9 2 -3 44 8 92 25 57 19 103 42
134 68 66 55 67 55 109 31 157 -90 287 -137 425 -154 l58 -7 -30 -37 c-16 -20
-57 -70 -90 -111 -34 -41 -66 -86 -71 -100 -6 -14 -10 -89 -10 -168 l1 -143
-22 8 c-24 8 -209 7 -415 -2 -68 -4 -123 -3 -123 2 0 4 28 42 61 83 75 93 76
94 83 155 l5 50 -11 -50 c-6 -27 -12 -51 -13 -53 -2 -2 -21 10 -44 26 -22 16
-37 32 -34 36 3 3 -2 6 -13 5 -16 0 -14 -4 10 -22 16 -12 40 -31 53 -42 l23
-20 -57 -72 c-32 -39 -60 -72 -63 -72 -3 1 -39 42 -80 92 -58 71 -89 99 -133
122 -43 22 -70 47 -107 95 -27 36 -45 68 -42 71 25 24 218 149 229 149 8 0 21
-16 29 -36 8 -20 17 -34 20 -31 3 3 -2 19 -11 37 -9 18 -15 33 -13 34 2 2 12
8 23 14 18 10 17 11 -9 9 -23 -2 -33 4 -45 26 -15 27 -14 30 31 119 26 50 46
93 43 96 -2 2 -25 -39 -52 -91 l-47 -96 17 -36 c9 -19 13 -35 8 -35 -15 0
-341 -225 -341 -236 0 -3 23 11 51 32 44 32 53 35 63 23 6 -8 30 -40 54 -72
31 -42 55 -62 92 -78 38 -16 66 -41 130 -117 44 -53 79 -101 77 -107 -5 -13
-97 -21 -343 -29 -109 -4 -240 -9 -291 -12 l-91 -4 -36 57 c-22 37 -31 62 -25
68 5 5 9 16 9 25 0 10 30 32 78 58 44 23 110 65 148 93 79 58 89 67 56 50
l-23 -12 16 31 c22 42 46 109 50 140 15 100 25 188 30 265 5 84 9 97 58 192
29 57 53 103 55 103 1 0 55 -28 120 -62z m1282 -203 c12 -44 26 -87 30 -96 5
-9 12 -33 15 -53 l7 -36 -53 -1 c-57 -2 -76 -3 -201 -13 -48 -4 -78 -3 -78 3
0 6 24 38 53 72 28 34 60 72 70 85 10 13 29 24 42 24 29 0 49 24 42 52 -4 15
1 30 15 45 26 28 28 26 58 -82z m-90 40 c10 -12 10 -18 0 -30 -25 -30 -61 -7
-46 30 3 8 12 15 19 15 8 0 20 -7 27 -15z m3059 -3 c12 -22 -3 -42 -31 -42
-12 0 -18 8 -18 23 0 40 31 52 49 19z m-5453 -210 c9 -2 70 -52 219 -183 303
-266 310 -273 307 -299 -2 -13 -4 -25 -5 -26 -6 -4 -220 -125 -257 -146 -25
-14 -97 -56 -160 -93 -63 -37 -133 -78 -156 -91 l-41 -23 -51 52 c-29 29 -52
58 -52 65 0 7 7 27 16 44 9 16 11 28 6 24 -5 -3 -15 -19 -22 -36 -7 -16 -20
-30 -29 -31 -15 0 -15 -1 0 -7 18 -8 119 -104 119 -114 0 -7 -105 -68 -118
-68 -5 0 -21 44 -37 98 -15 53 -38 131 -51 172 -92 301 -94 310 -74 310 6 0
10 9 10 20 0 11 7 23 16 27 9 3 12 8 5 12 -6 4 20 63 63 146 l73 140 79 5 c75
5 115 5 140 2z m3054 -1 c19 -1 221 -171 410 -345 31 -28 73 -66 93 -83 29
-25 36 -38 32 -55 -6 -23 -18 -32 -135 -96 -36 -19 -69 -38 -75 -43 -12 -8
-212 -122 -235 -133 -8 -3 -51 -29 -95 -56 l-80 -49 -52 52 c-29 29 -53 58
-53 66 0 8 16 42 35 77 26 47 35 74 34 106 -1 24 1 66 5 93 l5 50 -11 -50 c-6
-27 -10 -69 -9 -93 1 -38 -11 -78 -28 -92 -4 -3 -15 -24 -25 -47 -11 -24 -26
-43 -35 -44 -14 0 -14 -1 -1 -6 8 -3 33 -24 55 -47 73 -77 72 -70 12 -105 -30
-17 -59 -31 -64 -31 -9 0 -33 63 -38 100 -1 8 -7 28 -14 43 -6 16 -11 32 -11
37 0 5 -13 51 -29 102 -92 296 -87 273 -67 313 10 20 41 40 108 71 51 24 96
43 100 44 3 0 8 -8 10 -17 3 -10 4 5 5 32 0 28 -2 40 -4 28 -2 -12 -10 -26
-16 -31 -16 -13 -179 -84 -183 -80 -1 2 30 66 70 143 l73 140 46 3 47 3 -5
-33 -5 -33 10 32 c8 24 17 33 38 35 25 3 37 3 82 -1z m-3361 -149 c-39 -76
-73 -139 -74 -140 -2 -2 -13 -1 -24 3 -14 4 -27 28 -46 88 -14 45 -30 96 -35
113 -19 60 -17 62 73 68 140 10 162 11 170 8 4 -2 -24 -65 -64 -140z m3059 -1
c-40 -77 -77 -141 -83 -141 -26 0 -39 26 -74 141 l-38 124 41 5 c23 3 83 7
134 8 l94 3 -74 -140z m-182 41 c14 -48 32 -107 39 -130 13 -38 12 -47 0 -66
-8 -12 -13 -25 -11 -27 3 -2 -50 -31 -118 -64 -132 -65 -127 -61 -249 -225
-42 -57 -70 -86 -85 -88 -15 -2 -51 14 -98 45 l-74 48 1 151 c1 113 5 159 16
180 12 25 114 154 150 192 7 8 18 22 23 33 9 15 22 19 65 19 l55 0 2 -42 1
-43 6 45 6 45 70 5 c39 3 94 6 122 7 l53 1 26 -86z m-2967 -196 c15 -18 3 -46
-20 -46 -22 0 -34 22 -25 45 7 19 30 19 45 1z m3060 0 c15 -18 3 -46 -20 -46
-22 0 -34 22 -25 45 7 19 30 19 45 1z m-17 -65 c3 -3 13 -31 21 -61 8 -30 31
-106 50 -169 l35 -113 -52 6 c-34 3 -44 2 -31 -4 11 -5 34 -9 52 -9 27 -1 33
-6 43 -36 7 -20 9 -42 6 -50 -3 -8 -1 -15 4 -15 12 0 44 -106 37 -123 -5 -13
-298 -184 -305 -179 -3 2 -8 0 -11 -5 -3 -5 -34 -26 -67 -46 -50 -30 -72 -37
-113 -37 -34 0 -51 4 -52 13 0 9 -2 9 -6 0 -3 -9 -26 -13 -64 -13 -71 0 -97
15 -214 120 -44 40 -119 106 -167 147 -108 93 -112 108 -30 141 85 35 161 74
174 89 6 8 14 30 17 49 l6 36 41 -30 c108 -79 141 -81 190 -12 20 28 42 50 50
50 7 0 11 6 9 13 -6 15 68 113 84 110 6 -2 10 3 8 10 -1 6 51 39 118 74 112
58 144 66 167 44z m-2049 -103 c7 -22 -4 -38 -28 -38 -13 0 -25 6 -28 13 -7
21 4 37 28 37 13 0 25 -6 28 -12z m3057 -12 c0 -29 -24 -40 -44 -20 -20 20 -9
44 20 44 19 0 24 -5 24 -24z m-3105 -36 c4 -6 13 -9 21 -8 13 3 78 -82 69 -91
-3 -2 -54 4 -115 15 -110 18 -111 18 -88 36 13 10 28 18 33 18 6 0 21 9 35 20
29 22 36 24 45 10z m3132 -59 c14 -23 23 -43 21 -45 -1 -1 -55 7 -118 19 -128
23 -125 18 -30 72 49 27 93 11 127 -46z m-1759 -24 c6 -5 12 -6 12 -2 0 4 7 2
15 -5 21 -17 19 -63 -3 -90 -26 -32 -223 -120 -239 -108 -7 6 -22 8 -34 5 -15
-4 -33 5 -62 32 -51 46 -162 123 -201 139 -16 7 -27 15 -25 17 3 2 101 7 219
11 118 4 217 9 220 11 8 8 85 0 98 -10z m3089 -9 c18 -15 16 -59 -3 -87 -9
-13 -42 -34 -73 -48 -31 -14 -74 -33 -96 -43 -57 -26 -132 -16 -177 25 -48 43
-126 99 -178 126 l-45 24 40 3 c140 10 428 19 470 15 27 -2 55 -9 62 -15z
m-3657 -16 c0 -11 -65 -89 -104 -124 -16 -16 -27 -30 -24 -33 5 -6 76 67 120
124 l26 34 46 -23 c26 -12 87 -53 136 -91 110 -85 114 -100 33 -135 -32 -14
-67 -29 -78 -34 -73 -34 -339 -150 -340 -148 -37 53 -65 98 -65 103 0 3 -11
21 -25 39 -31 40 -31 50 -2 65 21 11 10 10 -23 -3 -11 -4 -31 20 -70 85 -30
50 -61 96 -69 102 -13 11 81 -147 100 -168 17 -18 9 -32 -31 -50 -22 -10 -38
-20 -36 -22 2 -3 23 5 46 17 23 12 43 20 44 18 10 -18 65 -102 88 -135 15 -23
28 -46 28 -51 0 -5 -37 -26 -81 -46 -67 -31 -84 -35 -94 -24 -7 7 -65 99 -130
203 -64 105 -130 210 -146 235 -15 24 -27 45 -26 46 1 1 48 4 104 7 66 3 105
1 112 -6 8 -8 11 -8 11 1 0 12 65 16 318 20 72 1 132 -2 132 -6z m3060 1 c0
-12 -66 -93 -103 -126 -18 -16 -58 -41 -90 -54 -32 -14 -56 -28 -54 -30 2 -2
33 10 69 26 62 27 93 56 175 160 l19 24 45 -20 c64 -29 223 -155 227 -180 3
-21 6 -20 -133 -83 -138 -63 -176 -80 -180 -80 -2 0 -38 -16 -80 -36 -43 -19
-78 -34 -80 -32 -28 38 -65 99 -65 107 0 6 -3 11 -8 11 -9 0 -47 68 -41 74 2
1 13 9 24 15 19 12 8 10 -28 -4 -7 -3 -21 9 -32 27 -42 73 -107 169 -111 165
-2 -2 25 -48 61 -102 l65 -99 -80 -35 c-44 -19 -78 -36 -76 -38 2 -2 39 12 82
31 71 31 80 33 88 18 5 -9 31 -50 58 -90 26 -40 48 -76 48 -81 0 -7 -150 -81
-164 -81 -3 0 -24 28 -46 62 -78 124 -269 433 -267 434 1 1 47 4 103 7 69 4
105 2 113 -6 8 -8 11 -8 11 1 0 12 41 14 308 20 78 2 142 -1 142 -5z m-2705
-193 c11 -18 -6 -50 -26 -50 -22 0 -34 22 -25 45 6 17 42 20 51 5z m3061 -5
c7 -18 -13 -45 -33 -45 -17 0 -27 24 -19 45 7 20 45 19 52 0z"/>
<path d="M3765 2848 c-26 -50 -43 -88 -38 -85 6 4 16 20 23 37 7 16 15 30 19
30 3 0 26 -12 50 -25 24 -14 46 -23 48 -21 3 3 -18 16 -46 31 l-51 26 26 45
c15 25 24 47 22 49 -3 3 -26 -36 -53 -87z"/>
<path d="M4315 2340 c-27 -7 -27 -8 -5 -8 14 0 39 4 55 8 27 7 27 8 5 8 -14 0
-38 -4 -55 -8z"/>
<path d="M4248 2323 c6 -2 18 -2 25 0 6 3 1 5 -13 5 -14 0 -19 -2 -12 -5z"/>
<path d="M4145 2310 c-27 -7 -27 -8 -5 -8 14 0 39 4 55 8 27 7 27 8 5 8 -14 0
-38 -4 -55 -8z"/>
<path d="M1298 2343 c6 -2 18 -2 25 0 6 3 1 5 -13 5 -14 0 -19 -2 -12 -5z"/>
<path d="M1375 2340 c11 -5 27 -9 35 -9 9 0 8 4 -5 9 -11 5 -27 9 -35 9 -9 0
-8 -4 5 -9z"/>
<path d="M1243 2333 c9 -2 23 -2 30 0 6 3 -1 5 -18 5 -16 0 -22 -2 -12 -5z"/>
<path d="M1115 2315 c-33 -7 -51 -13 -40 -13 11 -1 49 5 85 12 36 8 54 14 40
14 -14 0 -52 -6 -85 -13z"/>
<path d="M1450 2320 c34 -11 60 -11 35 0 -11 5 -29 8 -40 8 -16 0 -15 -2 5 -8z"/>
<path d="M2880 2029 c-41 -28 -82 -57 -90 -66 -8 -8 27 12 78 46 50 34 92 64
92 66 0 7 2 8 -80 -46z"/>
<path d="M1588 2283 c7 -3 16 -2 19 1 4 3 -2 6 -13 5 -11 0 -14 -3 -6 -6z"/>
<path d="M1650 2266 c20 -8 51 -16 70 -19 19 -4 8 2 -25 13 -67 22 -100 26
-45 6z"/>
<path d="M1935 2261 c18 -7 14 -12 -29 -42 -79 -56 -81 -57 -76 -62 5 -5 108
68 140 99 12 12 10 14 -20 13 -28 0 -31 -2 -15 -8z"/>
<path d="M1853 2253 c9 -2 25 -2 35 0 9 3 1 5 -18 5 -19 0 -27 -2 -17 -5z"/>
<path d="M1783 2243 c9 -2 23 -2 30 0 6 3 -1 5 -18 5 -16 0 -22 -2 -12 -5z"/>
<path d="M3636 2049 c-37 -62 -65 -113 -63 -115 2 -3 42 61 117 189 12 20 20
37 17 37 -2 0 -34 -50 -71 -111z"/>
<path d="M3370 1983 c30 -11 160 -95 160 -104 0 -5 -9 -23 -20 -41 -11 -18
-19 -44 -19 -58 1 -22 2 -22 8 6 4 17 16 44 26 62 l19 31 41 -25 c23 -13 48
-24 55 -24 8 0 -9 12 -38 26 -48 24 -51 27 -40 47 10 21 10 21 -8 6 -18 -16
-23 -14 -92 32 -40 27 -81 49 -90 48 -14 0 -14 -2 -2 -6z"/>
<path d="M3661 1826 c2 -3 58 -18 123 -34 65 -17 123 -36 127 -44 6 -9 9 -9 9
-1 0 6 3 20 6 30 4 13 3 15 -4 5 -8 -11 -30 -8 -125 17 -110 29 -146 36 -136
27z"/>
<path d="M3478 1705 c-2 -25 0 -45 4 -45 5 0 8 20 8 45 0 25 -2 45 -4 45 -2 0
-6 -20 -8 -45z"/>
<path d="M3468 1615 c-2 -19 0 -35 4 -35 4 0 8 16 8 35 0 19 -2 35 -4 35 -2 0
-6 -16 -8 -35z"/>
<path d="M3463 1525 c0 -22 2 -30 4 -17 2 12 2 30 0 40 -3 9 -5 -1 -4 -23z"/>
<path d="M3852 1540 c0 -14 2 -19 5 -12 2 6 2 18 0 25 -3 6 -5 1 -5 -13z"/>
<path d="M3453 1430 c0 -25 2 -35 4 -22 2 12 2 32 0 45 -2 12 -4 2 -4 -23z"/>
<path d="M490 1876 c0 -8 72 -46 87 -46 9 0 -6 11 -33 25 -52 26 -54 27 -54
21z"/>
<path d="M420 1703 c-3 -23 -2 -39 3 -34 5 5 7 24 5 42 -3 33 -4 33 -8 -8z"/>
<path d="M413 1615 c0 -22 2 -30 4 -17 2 12 2 30 0 40 -3 9 -5 -1 -4 -23z"/>
<path d="M403 1530 c0 -25 2 -35 4 -22 2 12 2 32 0 45 -2 12 -4 2 -4 -23z"/>
<path d="M791 1544 c0 -11 3 -14 6 -6 3 7 2 16 -1 19 -3 4 -6 -2 -5 -13z"/>
<path d="M393 1425 c0 -22 2 -30 4 -17 2 12 2 30 0 40 -3 9 -5 -1 -4 -23z"/>
<path d="M2248 1938 c-63 -107 -80 -138 -75 -138 2 0 32 48 67 108 77 131 72
122 67 122 -3 0 -29 -42 -59 -92z"/>
<path d="M2453 1729 c-142 -107 -199 -154 -163 -133 16 9 297 219 315 235 5 5
6 9 3 9 -4 0 -73 -50 -155 -111z"/>
<path d="M2135 1738 c-11 -29 -21 -57 -24 -63 -2 -5 -1 -8 2 -5 12 11 57 120
49 120 -4 0 -16 -24 -27 -52z"/>
<path d="M1178 1523 c7 -3 16 -2 19 1 4 3 -2 6 -13 5 -11 0 -14 -3 -6 -6z"/>
<path d="M1100 1510 c-20 -6 -21 -8 -5 -8 11 0 31 4 45 8 20 6 21 8 5 8 -11 0
-31 -4 -45 -8z"/>
<path d="M770 1180 c0 -6 7 -10 15 -10 8 0 15 2 15 4 0 2 -7 6 -15 10 -8 3
-15 1 -15 -4z"/>
<path d="M815 1172 c8 -8 97 -31 145 -37 35 -4 35 -4 5 5 -56 17 -157 39 -150
32z"/>
<path d="M1000 1129 c0 -5 9 -9 20 -9 11 0 20 2 20 4 0 2 -9 6 -20 9 -11 3
-20 1 -20 -4z"/>
<path d="M4305 1546 c-34 -11 -36 -13 -17 -18 12 -4 22 -2 22 2 0 5 19 13 43
18 24 6 31 10 17 10 -14 0 -43 -6 -65 -12z"/>
<path d="M4441 1495 c23 -30 43 -55 45 -55 2 0 -13 25 -33 55 -21 30 -41 55
-45 55 -5 0 10 -25 33 -55z"/>
<path d="M3987 1517 c2 -4 28 -6 56 -5 29 1 61 -1 72 -6 l20 -8 -20 14 c-21
14 -136 19 -128 5z"/>
<path d="M4205 1520 c-25 -11 1 -11 35 0 20 6 21 8 5 8 -11 0 -29 -3 -40 -8z"/>
<path d="M4148 1503 c6 -2 18 -2 25 0 6 3 1 5 -13 5 -14 0 -19 -2 -12 -5z"/>
<path d="M4051 1244 c0 -11 3 -14 6 -6 3 7 2 16 -1 19 -3 4 -6 -2 -5 -13z"/>
<path d="M3790 1187 c7 -7 251 -59 256 -54 2 2 -33 12 -78 22 -138 31 -185 39
-178 32z"/>
<path d="M4060 1129 c0 -5 9 -9 20 -9 11 0 20 2 20 4 0 2 -9 6 -20 9 -11 3
-20 1 -20 -4z"/>
<path d="M5182 1400 c0 -14 2 -19 5 -12 2 6 2 18 0 25 -3 6 -5 1 -5 -13z"/>
<path d="M5007 1373 c-37 -14 -66 -28 -64 -29 5 -5 110 31 134 45 30 17 1 11
-70 -16z"/>
<path d="M5170 1343 c0 -16 -3 -39 -7 -53 -3 -14 -3 -22 1 -19 10 10 24 99 15
99 -5 0 -9 -12 -9 -27z"/>
<path d="M5157 1253 c-3 -5 -8 -30 -11 -58 -5 -50 -1 -42 14 28 8 35 6 46 -3
30z"/>
<path d="M5125 1095 c-3 -26 -4 -49 -2 -51 3 -3 8 16 12 41 3 26 4 49 2 51 -3
3 -8 -16 -12 -41z"/>
<path d="M5112 1010 c0 -14 2 -19 5 -12 2 6 2 18 0 25 -3 6 -5 1 -5 -13z"/>
<path d="M5101 959 c0 -15 -20 -51 -43 -80 -28 -37 -33 -46 -14 -29 40 36 68
86 63 112 -4 21 -4 21 -6 -3z"/>
<path d="M5030 967 c0 -3 12 -12 26 -22 15 -9 23 -12 20 -6 -7 11 -46 35 -46
28z"/>
<path d="M1855 1599 c-4 -6 -5 -12 -2 -15 2 -3 7 2 10 11 7 17 1 20 -8 4z"/>
<path d="M2131 1444 c0 -11 3 -14 6 -6 3 7 2 16 -1 19 -3 4 -6 -2 -5 -13z"/>
<path d="M2122 1390 c0 -14 2 -19 5 -12 2 6 2 18 0 25 -3 6 -5 1 -5 -13z"/>
<path d="M2105 1315 c-3 -26 -4 -49 -2 -52 3 -3 9 16 12 42 4 25 5 48 2 51 -2
3 -8 -16 -12 -41z"/>
<path d="M2091 1245 c-1 -5 -4 -30 -6 -55 l-4 -45 10 40 c5 22 8 46 5 55 -2 8
-4 11 -5 5z"/>
<path d="M1830 1216 c0 -9 51 -106 56 -106 3 0 3 3 1 8 -3 4 -14 28 -26 55
-18 40 -31 58 -31 43z"/>
<path d="M2072 1120 c0 -14 2 -19 5 -12 2 6 2 18 0 25 -3 6 -5 1 -5 -13z"/>
<path d="M1890 1094 c0 -6 7 -19 16 -30 14 -18 14 -18 3 6 -14 31 -19 36 -19
24z"/>
<path d="M2062 1065 c0 -16 2 -22 5 -12 2 9 2 23 0 30 -3 6 -5 -1 -5 -18z"/>
<path d="M1920 1031 c0 -6 4 -13 10 -16 6 -3 7 1 4 9 -7 18 -14 21 -14 7z"/>
<path d="M374 1315 c-3 -8 -4 -20 -2 -27 3 -7 7 -1 10 15 6 29 1 36 -8 12z"/>
<path d="M356 1234 c-4 -20 -5 -38 -3 -40 3 -3 8 11 11 32 4 20 5 38 3 40 -3
3 -8 -11 -11 -32z"/>
<path d="M340 1157 c0 -19 -14 -29 -85 -61 -47 -21 -84 -40 -82 -42 2 -2 39
12 81 32 43 19 79 34 80 32 2 -2 8 -23 14 -48 l11 -45 -6 45 c-3 25 -5 60 -4
78 1 17 -1 32 -4 32 -3 0 -5 -10 -5 -23z"/>
<path d="M362 1000 c0 -14 2 -19 5 -12 2 6 2 18 0 25 -3 6 -5 1 -5 -13z"/>
<path d="M372 950 c0 -14 2 -19 5 -12 2 6 2 18 0 25 -3 6 -5 1 -5 -13z"/>
<path d="M383 885 c0 -22 2 -30 4 -17 2 12 2 30 0 40 -3 9 -5 -1 -4 -23z"/>
<path d="M369 828 c-5 -45 -3 -105 3 -102 4 3 7 30 5 59 -2 52 -5 70 -8 43z"/>
<path d="M346 693 c-6 -14 -5 -15 5 -6 7 7 10 15 7 18 -3 3 -9 -2 -12 -12z"/>
<path d="M238 603 c7 -3 16 -2 19 1 4 3 -2 6 -13 5 -11 0 -14 -3 -6 -6z"/>
<path d="M3422 1250 c0 -14 2 -19 5 -12 2 6 2 18 0 25 -3 6 -5 1 -5 -13z"/>
<path d="M3411 1204 c0 -11 3 -14 6 -6 3 7 2 16 -1 19 -3 4 -6 -2 -5 -13z"/>
<path d="M3408 1053 c5 -21 7 -23 10 -9 2 10 0 22 -6 28 -6 6 -7 0 -4 -19z"/>
<path d="M3422 1000 c0 -14 2 -19 5 -12 2 6 2 18 0 25 -3 6 -5 1 -5 -13z"/>
<path d="M3432 950 c0 -14 2 -19 5 -12 2 6 2 18 0 25 -3 6 -5 1 -5 -13z"/>
<path d="M3298 603 c7 -3 16 -2 19 1 4 3 -2 6 -13 5 -11 0 -14 -3 -6 -6z"/>
<path d="M2788 1205 c-3 -3 10 -21 30 -41 19 -19 36 -33 37 -32 5 6 -62 78
-67 73z"/>
<path d="M2842 1100 c0 -14 2 -19 5 -12 2 6 2 18 0 25 -3 6 -5 1 -5 -13z"/>
<path d="M2831 1062 c-1 -17 50 -105 56 -98 3 3 -4 18 -16 34 -11 17 -25 40
-30 53 -5 13 -10 18 -10 11z"/>
<path d="M2872 925 c0 -16 2 -22 5 -12 2 9 2 23 0 30 -3 6 -5 -1 -5 -18z"/>
<path d="M2790 716 c0 -2 9 -6 20 -9 11 -3 20 -1 20 4 0 5 -9 9 -20 9 -11 0
-20 -2 -20 -4z"/>
<path d="M2858 703 c7 -3 16 -2 19 1 4 3 -2 6 -13 5 -11 0 -14 -3 -6 -6z"/>
<path d="M2898 693 c7 -3 16 -2 19 1 4 3 -2 6 -13 5 -11 0 -14 -3 -6 -6z"/>
<path d="M2938 683 c7 -3 12 -23 12 -51 0 -57 7 -52 12 11 4 43 3 47 -16 46
-12 0 -15 -3 -8 -6z"/>
<path d="M3000 670 c14 -4 34 -8 45 -8 16 0 15 2 -5 8 -14 4 -34 8 -45 8 -16
0 -15 -2 5 -8z"/>
<path d="M3070 661 c0 -4 18 -12 40 -18 22 -5 40 -7 40 -4 0 4 -18 12 -40 18
-22 5 -40 7 -40 4z"/>
<path d="M2957 498 c3 -30 -1 -36 -51 -65 -30 -18 -59 -33 -64 -33 -12 0 -27
-39 -18 -47 3 -4 6 1 6 11 0 9 10 21 23 26 12 6 42 23 67 38 38 24 45 34 48
65 2 20 -1 37 -5 37 -5 0 -7 -15 -6 -32z"/>
<path d="M2806 314 c-4 -14 -5 -28 -3 -31 3 -2 8 8 11 23 4 14 5 28 3 31 -3 2
-8 -8 -11 -23z"/>
<path d="M2791 254 c0 -11 3 -14 6 -6 3 7 2 16 -1 19 -3 4 -6 -2 -5 -13z"/>
<path d="M2781 214 c0 -11 3 -14 6 -6 3 7 2 16 -1 19 -3 4 -6 -2 -5 -13z"/>
<path d="M2770 175 c0 -8 2 -15 4 -15 2 0 6 7 10 15 3 8 1 15 -4 15 -6 0 -10
-7 -10 -15z"/>
<path d="M1640 520 c-19 -11 -30 -19 -25 -19 6 0 26 8 45 19 19 11 31 19 25
19 -5 0 -26 -8 -45 -19z"/>
<path d="M1400 415 c-14 -8 -20 -14 -15 -14 6 0 21 6 35 14 14 8 21 14 15 14
-5 0 -21 -6 -35 -14z"/>
<path d="M1597 3047 c-3 -8 -1 -20 4 -28 6 -10 9 -7 9 14 0 29 -5 35 -13 14z"/>
<path d="M2434 3044 c-19 -15 -19 -15 1 -6 11 5 27 12 35 15 13 5 13 6 -1 6
-8 1 -24 -6 -35 -15z"/>
<path d="M3973 3045 c-3 -9 -3 -18 -1 -21 3 -3 8 4 11 16 6 23 -1 27 -10 5z"/>
<path d="M4449 2933 c-57 -70 -95 -121 -85 -113 11 8 53 58 94 110 41 52 82
101 90 107 9 7 13 15 10 18 -3 3 -52 -52 -109 -122z"/>
<path d="M5488 3044 c-39 -21 -35 -28 5 -8 37 19 44 24 31 24 -5 -1 -21 -8
-36 -16z"/>
<path d="M5670 3055 c0 -2 10 -21 22 -42 12 -21 28 -51 36 -66 8 -16 16 -26
19 -24 2 3 -12 34 -32 71 -33 59 -45 76 -45 61z"/>
<path d="M6100 3042 c6 -13 14 -21 18 -18 3 4 -2 14 -12 24 -18 16 -18 16 -6
-6z"/>
<path d="M2627 3025 c14 -35 104 -195 109 -195 7 0 -94 190 -108 205 -6 6 -6
2 -1 -10z"/>
<path d="M5762 2883 c14 -33 38 -71 38 -60 0 11 -39 87 -45 87 -3 0 1 -12 7
-27z"/>
<path d="M4324 2778 l-19 -23 23 19 c21 18 27 26 19 26 -2 0 -12 -10 -23 -22z"/>
<path d="M5 2563 c6 -6 34 -16 64 -22 49 -10 62 -20 158 -114 57 -56 109 -103
116 -105 7 -2 -40 48 -104 111 -106 104 -120 115 -160 119 -24 3 -53 9 -64 13
-14 6 -17 5 -10 -2z"/>
<path d="M490 2545 c-7 -9 -10 -18 -7 -21 3 -3 10 4 17 15 13 25 8 27 -10 6z"/>
<path d="M4648 2283 c7 -3 16 -2 19 1 4 3 -2 6 -13 5 -11 0 -14 -3 -6 -6z"/>
<path d="M4695 2270 c11 -5 27 -9 35 -9 9 0 8 4 -5 9 -11 5 -27 9 -35 9 -9 0
-8 -4 5 -9z"/>
<path d="M4765 2250 c11 -5 27 -9 35 -9 9 0 8 4 -5 9 -11 5 -27 9 -35 9 -9 0
-8 -4 5 -9z"/>
<path d="M4855 2250 c-34 -6 -35 -7 -10 -8 17 0 50 3 75 7 40 8 41 8 10 8 -19
0 -53 -3 -75 -7z"/>
<path d="M135 2221 c-22 -11 -35 -19 -30 -19 14 -1 93 36 80 37 -5 0 -28 -8
-50 -18z"/>
<path d="M6091 2131 c-13 -10 -33 -16 -45 -14 -16 4 -18 2 -7 -5 11 -8 5 -16
-28 -36 -22 -14 -41 -29 -41 -32 0 -6 8 -1 85 49 72 48 69 46 64 51 -2 3 -15
-3 -28 -13z"/>
<path d="M5929 2019 c-23 -19 -23 -20 -2 -10 12 6 25 16 28 21 10 16 -1 12
-26 -11z"/>
<path d="M4701 1901 c-23 -45 -38 -81 -34 -80 9 0 84 152 78 157 -2 2 -22 -32
-44 -77z"/>
<path d="M5186 1715 c-9 -26 -7 -32 5 -12 6 10 9 21 6 23 -2 3 -7 -2 -11 -11z"/>
<path d="M5299 1683 c-13 -16 -12 -17 4 -4 16 13 21 21 13 21 -2 0 -10 -8 -17
-17z"/>
<path d="M5157 1645 c-24 -50 -20 -58 4 -12 11 22 19 41 17 43 -3 2 -12 -12
-21 -31z"/>
<path d="M5850 1204 c1 -11 60 -77 65 -72 2 1 -12 21 -31 42 -19 22 -34 35
-34 30z"/>
<path d="M5896 1085 c-6 -28 -1 -45 20 -80 14 -25 28 -44 31 -41 2 2 -7 23
-22 45 -20 33 -24 49 -19 76 3 19 4 35 1 35 -3 0 -8 -16 -11 -35z"/>
<path d="M5932 925 c0 -16 2 -22 5 -12 2 9 2 23 0 30 -3 6 -5 -1 -5 -18z"/>
<path d="M5858 713 c6 -2 18 -2 25 0 6 3 1 5 -13 5 -14 0 -19 -2 -12 -5z"/>
<path d="M5908 703 c6 -2 18 -2 25 0 6 3 1 5 -13 5 -14 0 -19 -2 -12 -5z"/>
<path d="M5958 693 c7 -3 16 -2 19 1 4 3 -2 6 -13 5 -11 0 -14 -3 -6 -6z"/>
<path d="M5997 682 c6 -4 13 -32 16 -62 l3 -55 2 63 c2 53 0 62 -15 62 -12 0
-14 -3 -6 -8z"/>
<path d="M6055 670 c17 -4 39 -8 50 -8 16 0 15 2 -5 8 -14 4 -36 8 -50 8 -22
0 -22 -1 5 -8z"/>
<path d="M5 661 c-2 -4 16 -11 41 -17 24 -6 44 -8 44 -4 0 9 -80 29 -85 21z"/>
<path d="M115 630 c11 -5 31 -8 45 -8 l25 0 -25 8 c-14 4 -34 8 -45 8 l-20 1
20 -9z"/>
<path d="M4238 533 c-1 -5 -24 -18 -50 -30 -51 -24 -73 -51 -83 -98 -4 -20 0
-15 12 15 15 38 27 49 73 73 30 15 57 32 58 37 4 12 -5 14 -10 3z"/>
<path d="M6018 495 c2 -19 6 -35 8 -35 2 0 4 16 4 35 0 19 -4 35 -8 35 -4 0
-6 -16 -4 -35z"/>
<path d="M1118 499 c-43 -22 -64 -50 -72 -94 -4 -16 -3 -23 0 -15 29 68 40 83
83 105 25 13 42 24 36 24 -5 0 -27 -9 -47 -20z"/>
<path d="M5945 421 c-33 -21 -60 -44 -61 -52 -1 -8 1 -9 3 -2 2 7 29 26 58 43
30 17 57 35 60 41 8 13 7 12 -60 -30z"/>
<path d="M1031 363 c-1 -6 -4 -20 -7 -30 -5 -17 -5 -17 6 0 6 10 9 23 6 30 -3
9 -5 9 -5 0z"/>
<path d="M4083 344 c-6 -13 -7 -24 -3 -24 9 0 25 39 18 45 -2 2 -8 -7 -15 -21z"/>
<path d="M5861 294 c-7 -25 -10 -48 -8 -51 3 -2 10 17 16 43 7 25 10 48 8 51
-3 2 -10 -17 -16 -43z"/>
<path d="M1006 284 c-4 -14 -5 -28 -3 -31 3 -2 8 8 11 23 4 14 5 28 3 31 -3 2
-8 -8 -11 -23z"/>
<path d="M4067 296 c-4 -10 -7 -25 -6 -34 0 -11 4 -9 10 7 5 13 8 29 6 35 -2
5 -6 2 -10 -8z"/>
<path d="M986 216 l-7 -28 -122 5 c-67 3 -135 8 -152 11 -16 3 -5 -1 25 -10
32 -8 94 -14 148 -14 81 1 92 -1 93 -17 0 -10 7 0 15 21 8 22 13 45 11 50 -2
6 -7 -2 -11 -18z"/>
<path d="M3660 226 c0 -2 7 -6 15 -10 8 -3 15 -1 15 4 0 6 -7 10 -15 10 -8 0
-15 -2 -15 -4z"/>
<path d="M5841 214 c0 -11 3 -14 6 -6 3 7 2 16 -1 19 -3 4 -6 -2 -5 -13z"/>
<path d="M648 213 c7 -3 16 -2 19 1 4 3 -2 6 -13 5 -11 0 -14 -3 -6 -6z"/>
<path d="M3708 213 c6 -2 18 -2 25 0 6 3 1 5 -13 5 -14 0 -19 -2 -12 -5z"/>
<path d="M3758 203 c7 -3 16 -2 19 1 4 3 -2 6 -13 5 -11 0 -14 -3 -6 -6z"/>
<path d="M4041 203 c-1 -10 -29 -13 -108 -13 -58 0 -104 -3 -100 -6 3 -4 49
-6 103 -5 96 2 96 1 90 -21 -16 -61 -14 -68 4 -18 11 30 18 59 16 65 -2 5 -5
4 -5 -2z"/>
<path d="M3798 193 c7 -3 16 -2 19 1 4 3 -2 6 -13 5 -11 0 -14 -3 -6 -6z"/>
<path d="M936 56 c-3 -13 -9 -32 -12 -43 -5 -12 -4 -15 3 -8 11 10 28 75 20
75 -3 0 -8 -11 -11 -24z"/>
<path d="M3996 56 c-3 -13 -9 -32 -12 -43 -5 -12 -4 -15 3 -8 11 10 28 75 20
75 -3 0 -8 -11 -11 -24z"/>
<path d="M2486 15 c-11 -8 -15 -15 -10 -15 6 0 19 7 30 15 10 8 15 14 9 14 -5
0 -19 -6 -29 -14z"/>
</g>
</svg>
